<?xml version="1.0" encoding="iso-8859-1"?>
<!-- Generator: Adobe Illustrator 19.0.0, SVG Export Plug-In . SVG Version: 6.00 Build 0)  -->
<svg version="1.1" id="Layer_1" xmlns="http://www.w3.org/2000/svg" xmlns:xlink="http://www.w3.org/1999/xlink" x="0px" y="0px"
	 viewBox="0 0 512 512" style="enable-background:new 0 0 512 512;" xml:space="preserve">
<g>
	<g>
		<path d="M501.551,435.369c5.77,0,10.449-4.679,10.449-10.449c0-5.771-4.679-10.449-10.449-10.449
			c-13.827,0-25.078-11.25-25.078-25.078v-2.231c7.218,4.718,15.829,7.471,25.078,7.471c5.77,0,10.449-4.679,10.449-10.449
			c0-5.77-4.679-10.449-10.449-10.449c-13.827,0-25.078-11.25-25.078-25.078c0-5.77-4.679-10.449-10.449-10.449
			c-5.771,0-10.449,4.679-10.449,10.449c0,13.827-11.25,25.078-25.078,25.078c-5.771,0-10.449,4.679-10.449,10.449
			c0,5.77,4.678,10.449,10.449,10.449c9.248,0,17.859-2.754,25.078-7.471v2.231c0,13.827-11.25,25.078-25.078,25.078
			c-5.771,0-10.449,4.678-10.449,10.449c0,5.77,4.678,10.449,10.449,10.449c9.248,0,17.859-2.754,25.078-7.471v2.231
			c0,13.827-11.25,25.078-25.078,25.078c-5.771,0-10.449,4.679-10.449,10.449s4.678,10.449,10.449,10.449
			c9.248,0,17.859-2.754,25.078-7.471v22.096c0,5.77,4.678,10.449,10.449,10.449c5.77,0,10.449-4.679,10.449-10.449v-22.096
			c7.218,4.718,15.829,7.471,25.078,7.471c5.77,0,10.449-4.679,10.449-10.449s-4.679-10.449-10.449-10.449
			c-13.827,0-25.078-11.25-25.078-25.078v-2.231C483.692,432.614,492.303,435.369,501.551,435.369z"/>
	</g>
</g>
<g>
	<g>
		<path d="M425.873,288.749c5.77,0,10.449-4.679,10.449-10.449c0-5.77-4.679-10.449-10.449-10.449
			c-13.827,0-25.078-11.25-25.078-25.078v-2.231c7.218,4.718,15.829,7.471,25.078,7.471c5.77,0,10.449-4.678,10.449-10.449
			c0-5.77-4.679-10.449-10.449-10.449c-13.827,0-25.078-11.25-25.078-25.078c0-5.77-4.679-10.449-10.449-10.449
			c-5.77,0-10.449,4.679-10.449,10.449c0,13.827-11.25,25.078-25.078,25.078c-5.77,0-10.449,4.679-10.449,10.449
			c0,5.771,4.679,10.449,10.449,10.449c9.248,0,17.859-2.754,25.078-7.471v2.231c0,13.827-11.25,25.078-25.078,25.078
			c-5.77,0-10.449,4.679-10.449,10.449c0,5.77,4.679,10.449,10.449,10.449c9.248,0,17.859-2.754,25.078-7.471v2.231
			c0,13.827-11.25,25.078-25.078,25.078c-5.77,0-10.449,4.679-10.449,10.449c0,5.771,4.679,10.449,10.449,10.449
			c9.248,0,17.859-2.754,25.078-7.471v22.096c0,5.77,4.679,10.449,10.449,10.449c5.77,0,10.449-4.679,10.449-10.449v-22.096
			c7.218,4.717,15.83,7.471,25.078,7.471c5.77,0,10.449-4.678,10.449-10.449c0-5.77-4.679-10.449-10.449-10.449
			c-13.827,0-25.078-11.25-25.078-25.078v-2.231C408.014,285.995,416.625,288.749,425.873,288.749z"/>
	</g>
</g>
<g>
	<g>
		<path d="M122.253,331.888c5.77,0,10.449-4.679,10.449-10.449c0-5.77-4.679-10.449-10.449-10.449
			c-13.827,0-25.078-11.25-25.078-25.078v-2.231c7.218,4.718,15.829,7.471,25.078,7.471c5.77,0,10.449-4.679,10.449-10.449
			c0-5.77-4.679-10.449-10.449-10.449c-13.827,0-25.078-11.25-25.078-25.078c0-5.77-4.679-10.449-10.449-10.449
			c-5.771,0-10.449,4.679-10.449,10.449c0,13.827-11.25,25.078-25.078,25.078c-5.771,0-10.449,4.679-10.449,10.449
			c0,5.77,4.678,10.449,10.449,10.449c9.248,0,17.859-2.754,25.078-7.471v2.231c0,13.827-11.25,25.078-25.078,25.078
			c-5.771,0-10.449,4.679-10.449,10.449c0,5.77,4.678,10.449,10.449,10.449c9.248,0,17.859-2.754,25.078-7.471v2.231
			c0,13.827-11.25,25.078-25.078,25.078c-5.771,0-10.449,4.678-10.449,10.449c0,5.77,4.678,10.449,10.449,10.449
			c9.248,0,17.859-2.754,25.078-7.471v22.096c0,5.771,4.678,10.449,10.449,10.449c5.77,0,10.449-4.678,10.449-10.449v-22.096
			c7.218,4.718,15.829,7.471,25.078,7.471c5.77,0,10.449-4.679,10.449-10.449c0-5.771-4.679-10.449-10.449-10.449
			c-13.827,0-25.078-11.25-25.078-25.078v-2.231C104.394,329.135,113.005,331.888,122.253,331.888z"/>
	</g>
</g>
<g>
	<g>
		<path d="M256,240.246c-5.771,0-10.449,4.679-10.449,10.449v26.769c0,5.77,4.678,10.449,10.449,10.449
			c5.771,0,10.449-4.679,10.449-10.449v-26.769C266.449,244.926,261.771,240.246,256,240.246z"/>
	</g>
</g>
<g>
	<g>
		<path d="M256,197.09c-5.771,0-10.449,4.679-10.449,10.449v7.63c0,5.77,4.678,10.449,10.449,10.449
			c5.771,0,10.449-4.679,10.449-10.449v-7.63C266.449,201.769,261.771,197.09,256,197.09z"/>
	</g>
</g>
<g>
	<g>
		<path d="M509.039,164.725L370.067,21.944c-1.948-2.001-4.615-3.14-7.408-3.161c-2.792-0.013-5.477,1.075-7.455,3.048
			l-55.265,55.075L272.6,49.11c-1.949-1.981-4.607-3.104-7.386-3.121c-2.784-0.036-5.451,1.074-7.424,3.032l-65.975,65.486
			L66.138,13.137c-2.177-1.756-4.966-2.562-7.745-2.249c-2.778,0.318-5.314,1.734-7.039,3.936
			C35.093,35.571,12.504,62.202,3.013,71.815C1.083,73.77,0,76.409,0,79.157v92.857c0,5.77,4.678,10.449,10.449,10.449H55.38
			c5.771,0,10.449-4.679,10.449-10.449c0-5.77-4.678-10.449-10.449-10.449H20.898V83.36c10.22-10.877,27.005-30.769,40.315-47.347
			l124.491,100.415c0.165,0.143,0.334,0.278,0.507,0.409l30.656,24.727H90.906c-5.771,0-10.449,4.679-10.449,10.449
			c0,5.77,4.678,10.449,10.449,10.449h104.569l-27.206,307.345c-0.259,2.92,0.721,5.814,2.7,7.977
			c1.98,2.162,4.776,3.394,7.707,3.394h77.315H256h77.322c2.931,0,5.727-1.231,7.706-3.393c1.98-2.162,2.96-5.056,2.702-7.976
			l-27.142-307.347h104.505c5.771,0,10.449-4.679,10.449-10.449c0-5.77-4.678-10.449-10.449-10.449h-37.891l-68.61-69.758
			l47.874-47.709l114.333,117.467H456.62c-5.771,0-10.449,4.679-10.449,10.449c0,5.77,4.678,10.449,10.449,10.449h44.931
			c4.2,0,7.992-2.515,9.627-6.384C512.811,172.207,511.969,167.736,509.039,164.725z M321.91,480.279h-55.454L266.582,313
			c0.004-5.771-4.671-10.453-10.442-10.457c-0.002,0-0.005,0-0.007,0c-5.767,0-10.445,4.674-10.449,10.441l-0.125,167.295h-55.466
			l26.362-297.818h79.155L321.91,480.279z M353.891,161.565H250.154l-41.974-33.856l56.881-56.46L353.891,161.565z"/>
	</g>
</g>
<g>
</g>
<g>
</g>
<g>
</g>
<g>
</g>
<g>
</g>
<g>
</g>
<g>
</g>
<g>
</g>
<g>
</g>
<g>
</g>
<g>
</g>
<g>
</g>
<g>
</g>
<g>
</g>
<g>
</g>
</svg>
