<?xml version="1.0" encoding="utf-8"?>
<!-- Generator: Adobe Illustrator 22.1.0, SVG Export Plug-In . SVG Version: 6.00 Build 0)  -->
<svg version="1.1" id="Layer_1" xmlns="http://www.w3.org/2000/svg" xmlns:xlink="http://www.w3.org/1999/xlink" x="0px" y="0px"
	 viewBox="0 0 781 108" style="enable-background:new 0 0 781 108;" xml:space="preserve">
<style type="text/css">
	.st0{fill:#F7FCB9;}
	.st1{fill:#ADDD8E;}
	.st2{fill:#31A354;}
	.st3{font-family:'ACaslonPro-Regular';}
	.st4{font-size:15px;}
	.st5{fill:none;stroke:#000000;stroke-width:0.5;stroke-miterlimit:10;}
	.st6{fill:none;stroke:#000000;stroke-width:0.75;stroke-miterlimit:10;}
	.st7{fill:none;}
	.st8{font-family:'ArialMT';}
	.st9{font-size:12px;}
</style>
<g>
	<rect y="1" class="st0" width="260.3" height="52.8"/>
</g>
<g>
	<rect x="260.3" y="1" class="st1" width="260.3" height="52.8"/>
</g>
<g>
	<rect x="520.7" y="1" class="st2" width="260.3" height="52.8"/>
</g>
<text transform="matrix(1 0 0 1 78.846 14.2139)" class="st3 st4" style="text-decoration: underline;">Multiple Use</text>
<text transform="matrix(1 0 0 1 303.4736 14.2139)" class="st3 st4" style="text-decoration: underline;">Temporary Protection Status</text>
<text transform="matrix(1 0 0 1 325.916 35.5586)" class="st3 st4">Wilderness Study</text>
<text transform="matrix(1 0 0 1 363.7061 47.8555)" class="st3 st4">Areas</text>
<text transform="matrix(1 0 0 1 549.9313 14.2141)" class="st3 st4" style="text-decoration: underline;">Permanent Wilderness Designation</text>
<ellipse class="st5" cx="381.4" cy="34.5" rx="72" ry="15.8"/>
<text transform="matrix(1 0 0 1 607.3712 31.7764)" class="st3 st4">National Parks</text>
<text transform="matrix(1 0 0 1 572.8054 47.0234)" class="st3 st4">Official Wilderness Areas</text>
<text transform="matrix(1 0 0 1 45.4443 30.627)" class="st3 st4">  Most National Forests</text>
<text transform="matrix(1 0 0 1 64.4482 46.374)" class="st3 st4">Most BLM Lands</text>
<g>
	<g>
		<path class="st6" d="M377.3,55.9c-23.2,21.7-176.1,44.5-250.1,3.2"/>
		<g>
			<polygon points="121.8,55.9 131.4,57.2 127.6,59.4 127.6,63.6 			"/>
		</g>
	</g>
</g>
<path id="SVGID_x5F_1_x5F_" class="st7" d="M120.6,69.4c71.6,45.7,231.8,22.3,255.5,0"/>
<text><textPath  xlink:href="#SVGID_x5F_1_x5F_" startOffset="18.7012%">
<tspan  class="st3 st4">Daines and Gianforte Bills</tspan></textPath>
</text>
<text class="st8 st9"> </text>
<text class="st8 st9"> </text>
<text class="st8 st9"> </text>
</svg>
