<?xml version="1.0" encoding="utf-8"?>
<!-- Generator: Adobe Illustrator 22.1.0, SVG Export Plug-In . SVG Version: 6.00 Build 0)  -->
<svg version="1.1" id="Layer_1" xmlns="http://www.w3.org/2000/svg" xmlns:xlink="http://www.w3.org/1999/xlink" x="0px" y="0px"
	 viewBox="0 0 781 108" style="enable-background:new 0 0 781 108;" xml:space="preserve">
<style type="text/css">
	.st0{fill:#F7FCB9;}
	.st1{fill:#ADDD8E;}
	.st2{fill:#31A354;}
	.st3{font-family:'Lato-Regular';}
	.st4{font-size:11.3971px;}
	.st5{fill:none;stroke:#000000;stroke-width:0.5;stroke-miterlimit:10;}
	.st6{font-size:11.9969px;}
	.st7{fill:none;stroke:#000000;stroke-width:0.75;stroke-miterlimit:10;}
	.st8{fill:none;}
	.st9{font-family:'ArialMT';}
	.st10{font-size:12px;}
</style>
<g>
	<rect y="1" class="st0" width="260.3" height="52.8"/>
</g>
<g>
	<rect x="260.3" y="1" class="st1" width="260.3" height="52.8"/>
</g>
<g>
	<rect x="520.7" y="1" class="st2" width="260.3" height="52.8"/>
</g>
<text transform="matrix(1 0 0 1 87.5781 14.2139)" class="st3 st4" style="text-decoration: underline;">MULTIPLE USE</text>
<text transform="matrix(1 0 0 1 298.7236 14.2139)" class="st3 st4" style="text-decoration: underline;">TEMPORARY PROTECTION STATUS</text>
<text transform="matrix(1 0 0 1 323.666 35.8086)" class="st3 st4">WILDERNESS STUDY</text>
<text transform="matrix(1 0 0 1 361.4561 46.6055)" class="st3 st4">AREAS</text>
<text transform="matrix(1 0 0 1 544.6611 14.2139)" class="st3 st4" style="text-decoration: underline;">PERMANENT WILDERNESS DESIGNATION</text>
<ellipse class="st5" cx="379.7" cy="34.6" rx="65.4" ry="14.4"/>
<text transform="matrix(1 0 0 1 584.4824 33.0264)" class="st3 st6">NATIONAL PARKS</text>
<text transform="matrix(1 0 0 1 549.9316 45.0234)" class="st3 st6">OFFICIAL WILDERNESS AREAS</text>
<text transform="matrix(1 0 0 1 40.6943 30.627)" class="st3 st6">MOST NATIONAL FORESTS</text>
<text transform="matrix(1 0 0 1 64.4482 42.624)" class="st3 st6">MOST BLM LANDS</text>
<g>
	<g>
		<path class="st7" d="M377.3,54.4c-23.2,21.7-176.1,44.5-250.1,3.2"/>
		<g>
			<polygon points="121.8,54.4 131.4,55.7 127.6,57.9 127.6,62.1 			"/>
		</g>
	</g>
</g>
<path id="SVGID_x5F_1_x5F_" class="st8" d="M120.6,66.4c71.6,45.7,231.8,22.3,255.5,0"/>
<text><textPath  xlink:href="#SVGID_x5F_1_x5F_" startOffset="16.8945%">
<tspan  class="st3" style="font-size:11px;">DAINES AND GIANFORTE BILLS</tspan></textPath>
</text>
<text class="st9 st10"> </text>
</svg>
